<svg width="94" height="152" viewBox="0 0 94 152" fill="none" xmlns="http://www.w3.org/2000/svg">
<g clip-path="url(#clip0_218_14)">
<path d="M68 151.52H86.748V132.699H68V151.519V151.52Z" fill="#FFE8F0"/>
<path fill-rule="evenodd" clip-rule="evenodd" d="M75.67 147.242H90.157C90.6616 147.241 91.1611 147.141 91.6269 146.947C92.0928 146.753 92.5159 146.469 92.872 146.111C93.2281 145.754 93.5103 145.33 93.7025 144.863C93.8947 144.397 93.993 143.897 93.992 143.392V128.85C93.993 128.345 93.8947 127.845 93.7025 127.379C93.5103 126.912 93.2281 126.488 92.872 126.131C92.5159 125.773 92.0928 125.489 91.6269 125.295C91.1611 125.101 90.6616 125.001 90.157 125H75.67C75.1653 125.001 74.6658 125.101 74.2 125.295C73.7342 125.489 73.3111 125.773 72.955 126.131C72.5988 126.488 72.3166 126.912 72.1245 127.379C71.9323 127.845 71.8339 128.345 71.835 128.85V143.393C71.8339 143.898 71.9323 144.398 72.1245 144.864C72.3166 145.331 72.5988 145.755 72.955 146.112C73.3111 146.47 73.7342 146.754 74.2 146.948C74.6658 147.142 75.1653 147.242 75.67 147.243V147.242ZM75.67 143.82C75.5569 143.82 75.4485 143.775 75.3687 143.695C75.2888 143.615 75.244 143.506 75.244 143.393V128.849C75.244 128.613 75.434 128.421 75.67 128.421H90.157C90.213 128.421 90.2685 128.432 90.3203 128.454C90.3721 128.475 90.4191 128.507 90.4586 128.547C90.4982 128.587 90.5295 128.634 90.5508 128.686C90.5722 128.737 90.5831 128.793 90.583 128.849V143.393C90.583 143.506 90.5381 143.615 90.4583 143.695C90.3784 143.775 90.27 143.82 90.157 143.82H75.67Z" fill="#130B43"/>
<path d="M6.30517 47.8465C6.30517 46.1067 4.89357 44.6949 3.15259 44.6949C2.73785 44.6956 2.32731 44.7778 1.94442 44.9365C1.56153 45.0953 1.21378 45.3277 0.921039 45.6203C0.628295 45.913 0.396283 46.2602 0.238252 46.6422C0.0802218 47.0242 -0.000733176 47.4334 8.98477e-06 47.8465C8.98477e-06 49.5882 1.41161 50.9981 3.15259 50.9981C4.89357 50.9981 6.30517 49.5882 6.30517 47.8465ZM6.30517 36.5C6.30517 34.7583 4.89357 33.3484 3.15259 33.3484C2.73778 33.3489 2.32713 33.4308 1.94413 33.5895C1.56112 33.7482 1.21328 33.9806 0.920487 34.2733C0.627693 34.566 0.395691 34.9133 0.237748 35.2954C0.0798052 35.6775 -0.00098073 36.0868 8.98477e-06 36.5C8.98477e-06 38.2398 1.41161 39.6516 3.15259 39.6516C4.89357 39.6516 6.30517 38.2398 6.30517 36.5ZM6.30517 25.1516C6.30517 23.4118 4.89357 22 3.15259 22C2.73785 22.0007 2.32731 22.0828 1.94442 22.2416C1.56153 22.4004 1.21378 22.6327 0.921039 22.9254C0.628295 23.2181 0.396283 23.5653 0.238252 23.9473C0.0802218 24.3292 -0.000733176 24.7385 8.98477e-06 25.1516C8.98477e-06 26.8933 1.41161 28.3051 3.15259 28.3051C4.89357 28.3051 6.30517 26.8933 6.30517 25.1516ZM17.6526 47.8465C17.6526 46.1067 16.241 44.6949 14.5 44.6949C14.0853 44.6956 13.6747 44.7778 13.2918 44.9365C12.9089 45.0953 12.5612 45.3277 12.2685 45.6203C11.9757 45.913 11.7437 46.2602 11.5857 46.6422C11.4276 47.0242 11.3467 47.4334 11.3474 47.8465C11.3474 49.5882 12.759 51 14.5 51C16.241 51 17.6526 49.5882 17.6526 47.8465ZM17.6526 36.5C17.6526 34.7583 16.241 33.3484 14.5 33.3484C14.0852 33.3489 13.6745 33.4308 13.2915 33.5895C12.9085 33.7482 12.5607 33.9806 12.2679 34.2733C11.9751 34.566 11.7431 34.9133 11.5852 35.2954C11.4272 35.6775 11.3464 36.0868 11.3474 36.5C11.3474 38.2398 12.759 39.6516 14.5 39.6516C16.241 39.6516 17.6526 38.2398 17.6526 36.5ZM17.6526 25.1516C17.6526 23.4118 16.241 22 14.5 22C14.0853 22.0007 13.6747 22.0828 13.2918 22.2416C12.9089 22.4004 12.5612 22.6327 12.2685 22.9254C11.9757 23.2181 11.7437 23.5653 11.5857 23.9473C11.4276 24.3292 11.3467 24.7385 11.3474 25.1516C11.3474 26.8933 12.759 28.3051 14.5 28.3051C16.241 28.3051 17.6526 26.8933 17.6526 25.1516ZM29 47.8465C29 46.1067 27.5884 44.6949 25.8493 44.6949C25.4346 44.6956 25.024 44.7778 24.6411 44.9365C24.2582 45.0953 23.9105 45.3277 23.6177 45.6203C23.325 45.913 23.093 46.2602 22.935 46.6422C22.7769 47.0242 22.696 47.4334 22.6967 47.8465C22.6967 49.5882 24.1083 51 25.8493 51C27.5903 51 29 49.5882 29 47.8465ZM29 36.5C29 34.7583 27.5884 33.3484 25.8493 33.3484C25.4346 33.3491 25.024 33.4312 24.6411 33.59C24.2582 33.7488 23.9105 33.9811 23.6177 34.2738C23.325 34.5665 23.093 34.9137 22.935 35.2957C22.7769 35.6776 22.696 36.0869 22.6967 36.5C22.6967 38.2398 24.1083 39.6516 25.8493 39.6516C27.5903 39.6516 29 38.2398 29 36.5ZM29 25.1516C29 23.4118 27.5884 22 25.8493 22C25.4346 22.0007 25.024 22.0828 24.6411 22.2416C24.2582 22.4004 23.9105 22.6327 23.6177 22.9254C23.325 23.2181 23.093 23.5653 22.935 23.9473C22.7769 24.3292 22.696 24.7385 22.6967 25.1516C22.6967 26.8933 24.1083 28.3051 25.8493 28.3051C27.5903 28.3051 29 26.8933 29 25.1516Z" fill="#130B43"/>
</g>
<defs>
<clipPath id="clip0_218_14">
<rect width="94" height="152" fill="white" transform="matrix(1 0 0 -1 0 152)"/>
</clipPath>
</defs>
</svg>
