<svg width="119" height="152" viewBox="0 0 119 152" fill="none" xmlns="http://www.w3.org/2000/svg">
<path d="M71.35 69.682C71.35 70.61 70.6 71.363 69.675 71.363C69.4546 71.3626 69.2365 71.3188 69.0331 71.2341C68.8297 71.1494 68.6449 71.0255 68.4894 70.8694C68.3338 70.7133 68.2105 70.5281 68.1266 70.3244C68.0426 70.1206 67.9996 69.9024 68 69.682C68 68.753 68.75 68.001 69.675 68.001C70.6 68.001 71.35 68.753 71.35 69.682ZM71.35 75.734C71.35 76.663 70.6 77.415 69.675 77.415C69.4546 77.4147 69.2364 77.371 69.0329 77.2864C68.8294 77.2017 68.6446 77.0778 68.4891 76.9217C68.3335 76.7656 68.2102 76.5803 68.1263 76.3765C68.0424 76.1727 67.9995 75.9544 68 75.734C68 74.806 68.75 74.053 69.675 74.053C70.6 74.053 71.35 74.806 71.35 75.734ZM71.35 81.787C71.35 82.715 70.6 83.468 69.675 83.468C69.4546 83.4676 69.2365 83.4238 69.0331 83.3391C68.8297 83.2544 68.6449 83.1305 68.4894 82.9744C68.3338 82.8183 68.2105 82.6331 68.1266 82.4294C68.0426 82.2256 67.9996 82.0074 68 81.787C68 80.858 68.75 80.105 69.675 80.105C70.6 80.105 71.35 80.858 71.35 81.787ZM77.379 69.682C77.379 70.61 76.629 71.363 75.704 71.363C75.4836 71.3626 75.2655 71.3188 75.0621 71.2341C74.8587 71.1494 74.6739 71.0255 74.5184 70.8694C74.3628 70.7133 74.2395 70.5281 74.1556 70.3244C74.0716 70.1206 74.0286 69.9024 74.029 69.682C74.029 68.753 74.779 68 75.704 68C76.629 68 77.379 68.753 77.379 69.682ZM77.379 75.734C77.379 76.663 76.629 77.415 75.704 77.415C75.4836 77.4147 75.2654 77.371 75.0619 77.2864C74.8584 77.2017 74.6736 77.0778 74.5181 76.9217C74.3625 76.7656 74.2392 76.5803 74.1553 76.3765C74.0714 76.1727 74.0285 75.9544 74.029 75.734C74.029 74.806 74.779 74.053 75.704 74.053C76.629 74.053 77.379 74.806 77.379 75.734ZM77.379 81.787C77.379 82.715 76.629 83.468 75.704 83.468C75.4836 83.4676 75.2655 83.4238 75.0621 83.3391C74.8587 83.2544 74.6739 83.1305 74.5184 82.9744C74.3628 82.8183 74.2395 82.6331 74.1556 82.4294C74.0716 82.2256 74.0286 82.0074 74.029 81.787C74.029 80.858 74.779 80.105 75.704 80.105C76.629 80.105 77.379 80.858 77.379 81.787ZM83.408 69.682C83.408 70.61 82.658 71.363 81.734 71.363C81.5136 71.3626 81.2955 71.3188 81.0921 71.2341C80.8887 71.1494 80.7039 71.0255 80.5484 70.8694C80.3928 70.7133 80.2695 70.5281 80.1856 70.3244C80.1016 70.1206 80.0586 69.9024 80.059 69.682C80.059 68.753 80.809 68 81.734 68C82.659 68 83.408 68.753 83.408 69.682ZM83.408 75.734C83.408 76.663 82.658 77.415 81.734 77.415C81.5136 77.4146 81.2955 77.3708 81.0921 77.2861C80.8887 77.2014 80.7039 77.0775 80.5484 76.9214C80.3928 76.7653 80.2695 76.5801 80.1856 76.3764C80.1016 76.1726 80.0586 75.9544 80.059 75.734C80.059 74.806 80.809 74.053 81.734 74.053C82.659 74.053 83.408 74.806 83.408 75.734ZM83.408 81.787C83.408 82.715 82.658 83.468 81.734 83.468C81.5136 83.4676 81.2955 83.4238 81.0921 83.3391C80.8887 83.2544 80.7039 83.1305 80.5484 82.9744C80.3928 82.8183 80.2695 82.6331 80.1856 82.4294C80.1016 82.2256 80.0586 82.0074 80.059 81.787C80.059 80.858 80.809 80.105 81.734 80.105C82.659 80.105 83.408 80.858 83.408 81.787Z" fill="#130B43"/>
<path d="M71.35 87.682C71.35 88.61 70.6 89.363 69.675 89.363C69.4546 89.3626 69.2365 89.3188 69.0331 89.2341C68.8297 89.1494 68.6449 89.0255 68.4894 88.8694C68.3338 88.7133 68.2105 88.5281 68.1266 88.3244C68.0426 88.1206 67.9996 87.9024 68 87.682C68 86.753 68.75 86.001 69.675 86.001C70.6 86.001 71.35 86.753 71.35 87.682ZM71.35 93.734C71.35 94.663 70.6 95.415 69.675 95.415C69.4546 95.4147 69.2364 95.371 69.0329 95.2864C68.8294 95.2017 68.6446 95.0778 68.4891 94.9217C68.3335 94.7656 68.2102 94.5803 68.1263 94.3765C68.0424 94.1727 67.9995 93.9544 68 93.734C68 92.806 68.75 92.053 69.675 92.053C70.6 92.053 71.35 92.806 71.35 93.734ZM71.35 99.787C71.35 100.715 70.6 101.468 69.675 101.468C69.4546 101.468 69.2365 101.424 69.0331 101.339C68.8297 101.254 68.6449 101.131 68.4894 100.974C68.3338 100.818 68.2105 100.633 68.1266 100.429C68.0426 100.226 67.9996 100.007 68 99.787C68 98.858 68.75 98.105 69.675 98.105C70.6 98.105 71.35 98.858 71.35 99.787ZM77.379 87.682C77.379 88.61 76.629 89.363 75.704 89.363C75.4836 89.3626 75.2655 89.3188 75.0621 89.2341C74.8587 89.1494 74.6739 89.0255 74.5184 88.8694C74.3628 88.7133 74.2395 88.5281 74.1556 88.3244C74.0716 88.1206 74.0286 87.9024 74.029 87.682C74.029 86.753 74.779 86 75.704 86C76.629 86 77.379 86.753 77.379 87.682ZM77.379 93.734C77.379 94.663 76.629 95.415 75.704 95.415C75.4836 95.4147 75.2654 95.371 75.0619 95.2864C74.8584 95.2017 74.6736 95.0778 74.5181 94.9217C74.3625 94.7656 74.2392 94.5803 74.1553 94.3765C74.0714 94.1727 74.0285 93.9544 74.029 93.734C74.029 92.806 74.779 92.053 75.704 92.053C76.629 92.053 77.379 92.806 77.379 93.734ZM77.379 99.787C77.379 100.715 76.629 101.468 75.704 101.468C75.4836 101.468 75.2655 101.424 75.0621 101.339C74.8587 101.254 74.6739 101.131 74.5184 100.974C74.3628 100.818 74.2395 100.633 74.1556 100.429C74.0716 100.226 74.0286 100.007 74.029 99.787C74.029 98.858 74.779 98.105 75.704 98.105C76.629 98.105 77.379 98.858 77.379 99.787ZM83.408 87.682C83.408 88.61 82.658 89.363 81.734 89.363C81.5136 89.3626 81.2955 89.3188 81.0921 89.2341C80.8887 89.1494 80.7039 89.0255 80.5484 88.8694C80.3928 88.7133 80.2695 88.5281 80.1856 88.3244C80.1016 88.1206 80.0586 87.9024 80.059 87.682C80.059 86.753 80.809 86 81.734 86C82.659 86 83.408 86.753 83.408 87.682ZM83.408 93.734C83.408 94.663 82.658 95.415 81.734 95.415C81.5136 95.4146 81.2955 95.3708 81.0921 95.2861C80.8887 95.2014 80.7039 95.0775 80.5484 94.9214C80.3928 94.7653 80.2695 94.5801 80.1856 94.3764C80.1016 94.1726 80.0586 93.9544 80.059 93.734C80.059 92.806 80.809 92.053 81.734 92.053C82.659 92.053 83.408 92.806 83.408 93.734ZM83.408 99.787C83.408 100.715 82.658 101.468 81.734 101.468C81.5136 101.468 81.2955 101.424 81.0921 101.339C80.8887 101.254 80.7039 101.131 80.5484 100.974C80.3928 100.818 80.2695 100.633 80.1856 100.429C80.1016 100.226 80.0586 100.007 80.059 99.787C80.059 98.858 80.809 98.105 81.734 98.105C82.659 98.105 83.408 98.858 83.408 99.787Z" fill="#130B43"/>
<path d="M71.35 105.682C71.35 106.61 70.6 107.363 69.675 107.363C69.4546 107.363 69.2365 107.319 69.0331 107.234C68.8297 107.149 68.6449 107.026 68.4894 106.869C68.3338 106.713 68.2105 106.528 68.1266 106.324C68.0426 106.121 67.9996 105.902 68 105.682C68 104.753 68.75 104.001 69.675 104.001C70.6 104.001 71.35 104.753 71.35 105.682ZM71.35 111.734C71.35 112.663 70.6 113.415 69.675 113.415C69.4546 113.415 69.2364 113.371 69.0329 113.286C68.8294 113.202 68.6446 113.078 68.4891 112.922C68.3335 112.766 68.2102 112.58 68.1263 112.377C68.0424 112.173 67.9995 111.954 68 111.734C68 110.806 68.75 110.053 69.675 110.053C70.6 110.053 71.35 110.806 71.35 111.734ZM71.35 117.787C71.35 118.715 70.6 119.468 69.675 119.468C69.4546 119.468 69.2365 119.424 69.0331 119.339C68.8297 119.254 68.6449 119.131 68.4894 118.974C68.3338 118.818 68.2105 118.633 68.1266 118.429C68.0426 118.226 67.9996 118.007 68 117.787C68 116.858 68.75 116.105 69.675 116.105C70.6 116.105 71.35 116.858 71.35 117.787ZM77.379 105.682C77.379 106.61 76.629 107.363 75.704 107.363C75.4836 107.363 75.2655 107.319 75.0621 107.234C74.8587 107.149 74.6739 107.026 74.5184 106.869C74.3628 106.713 74.2395 106.528 74.1556 106.324C74.0716 106.121 74.0286 105.902 74.029 105.682C74.029 104.753 74.779 104 75.704 104C76.629 104 77.379 104.753 77.379 105.682ZM77.379 111.734C77.379 112.663 76.629 113.415 75.704 113.415C75.4836 113.415 75.2654 113.371 75.0619 113.286C74.8584 113.202 74.6736 113.078 74.5181 112.922C74.3625 112.766 74.2392 112.58 74.1553 112.377C74.0714 112.173 74.0285 111.954 74.029 111.734C74.029 110.806 74.779 110.053 75.704 110.053C76.629 110.053 77.379 110.806 77.379 111.734ZM77.379 117.787C77.379 118.715 76.629 119.468 75.704 119.468C75.4836 119.468 75.2655 119.424 75.0621 119.339C74.8587 119.254 74.6739 119.131 74.5184 118.974C74.3628 118.818 74.2395 118.633 74.1556 118.429C74.0716 118.226 74.0286 118.007 74.029 117.787C74.029 116.858 74.779 116.105 75.704 116.105C76.629 116.105 77.379 116.858 77.379 117.787ZM83.408 105.682C83.408 106.61 82.658 107.363 81.734 107.363C81.5136 107.363 81.2955 107.319 81.0921 107.234C80.8887 107.149 80.7039 107.026 80.5484 106.869C80.3928 106.713 80.2695 106.528 80.1856 106.324C80.1016 106.121 80.0586 105.902 80.059 105.682C80.059 104.753 80.809 104 81.734 104C82.659 104 83.408 104.753 83.408 105.682ZM83.408 111.734C83.408 112.663 82.658 113.415 81.734 113.415C81.5136 113.415 81.2955 113.371 81.0921 113.286C80.8887 113.201 80.7039 113.078 80.5484 112.921C80.3928 112.765 80.2695 112.58 80.1856 112.376C80.1016 112.173 80.0586 111.954 80.059 111.734C80.059 110.806 80.809 110.053 81.734 110.053C82.659 110.053 83.408 110.806 83.408 111.734ZM83.408 117.787C83.408 118.715 82.658 119.468 81.734 119.468C81.5136 119.468 81.2955 119.424 81.0921 119.339C80.8887 119.254 80.7039 119.131 80.5484 118.974C80.3928 118.818 80.2695 118.633 80.1856 118.429C80.1016 118.226 80.0586 118.007 80.059 117.787C80.059 116.858 80.809 116.105 81.734 116.105C82.659 116.105 83.408 116.858 83.408 117.787Z" fill="#130B43"/>
</svg>
