<svg width="94" height="158" viewBox="0 0 94 158" fill="none" xmlns="http://www.w3.org/2000/svg">
<path d="M55 41.91L68.933 28.054L82.866 41.909L68.933 55.765L55 41.909V41.91Z" fill="#FFBFE1"/>
<path fill-rule="evenodd" clip-rule="evenodd" d="M63.867 39.39L74.633 28.683C75.3909 27.9309 76.4153 27.5089 77.483 27.5089C78.5507 27.5089 79.5752 27.9309 80.333 28.683L91.1 39.39C91.4741 39.7611 91.771 40.2026 91.9736 40.689C92.1762 41.1754 92.2805 41.6971 92.2805 42.224C92.2805 42.7509 92.1762 43.2726 91.9736 43.759C91.771 44.2454 91.4741 44.6869 91.1 45.058L80.333 55.765C79.5752 56.5171 78.5507 56.9391 77.483 56.9391C76.4153 56.9391 75.3909 56.5171 74.633 55.765L63.867 45.058C63.493 44.6869 63.1961 44.2454 62.9934 43.759C62.7908 43.2726 62.6865 42.7509 62.6865 42.224C62.6865 41.6971 62.7908 41.1754 62.9934 40.689C63.1961 40.2026 63.493 39.7611 63.867 39.39V39.39ZM66.4 41.91C66.3586 41.9512 66.3258 42.0002 66.3034 42.0542C66.281 42.1082 66.2694 42.166 66.2694 42.2245C66.2694 42.2829 66.281 42.3408 66.3034 42.3948C66.3258 42.4487 66.3586 42.4977 66.4 42.539L77.167 53.246C77.2513 53.3293 77.365 53.3761 77.4835 53.3761C77.602 53.3761 77.7158 53.3293 77.8 53.246L88.566 42.539C88.6076 42.4977 88.6405 42.4486 88.663 42.3946C88.6855 42.3405 88.6971 42.2825 88.6971 42.224C88.6971 42.1654 88.6855 42.1075 88.663 42.0534C88.6405 41.9993 88.6076 41.9503 88.566 41.909L77.8 31.203C77.7158 31.1196 77.602 31.0729 77.4835 31.0729C77.365 31.0729 77.2513 31.1196 77.167 31.203L66.4 41.909V41.91Z" fill="#130B43"/>
<path d="M5.29719 135.96C5.63402 135.625 6.08947 135.438 6.56419 135.438C7.03891 135.438 7.49436 135.625 7.83119 135.96L17.3312 145.407C18.0302 146.102 18.0302 147.23 17.3312 147.926C16.6312 148.622 15.4972 148.622 14.7972 147.926L5.29719 138.479C4.59719 137.783 4.59719 136.655 5.29719 135.96V135.96ZM1.26719 143.976C1.60397 143.642 2.05921 143.454 2.53369 143.454C3.00816 143.454 3.4634 143.642 3.80019 143.976L13.3002 153.423C14.0002 154.119 14.0002 155.246 13.3002 155.942C12.6002 156.638 11.4662 156.638 10.7672 155.942L1.26719 146.495C0.567187 145.799 0.567187 144.672 1.26719 143.976V143.976Z" fill="#130B43"/>
</svg>
