<svg width="512" height="401" viewBox="0 0 512 401" fill="none" xmlns="http://www.w3.org/2000/svg">
<path fill-rule="evenodd" clip-rule="evenodd" d="M77.6938 4.75422C73.1368 10.6712 60.4168 32.2112 55.1188 42.9842C49.5958 54.2142 43.9038 67.7552 40.8418 76.9482C40.3838 78.3232 38.5788 83.2732 36.8308 87.9482C25.6778 117.767 20.3748 149.283 20.9278 182.448C21.1428 195.344 21.5098 193.893 13.9678 209.948C7.91778 222.825 -1.40322 258.289 0.177782 262.41C0.439782 263.094 3.50678 264.196 6.99278 264.859C15.4968 266.478 29.4498 270.715 34.1218 273.097C38.0008 275.076 41.8318 278.356 41.8298 279.698C41.8288 280.111 37.6488 280.469 32.5408 280.495C18.9228 280.563 6.85079 284.839 3.69379 290.714C2.70179 292.559 2.80279 294.045 4.23479 298.714C6.53079 306.196 12.2898 318.148 14.6108 320.249C16.3158 321.792 16.7768 321.777 21.3858 320.035C27.3818 317.767 42.2048 314.667 44.5998 315.179C45.9538 315.468 45.6778 315.913 43.3308 317.225C34.7558 322.016 31.7398 327.218 31.9388 336.872L32.0818 343.828L39.2058 350.676C43.1248 354.443 48.2268 358.995 50.5448 360.792L54.7588 364.059L59.5448 358.887C64.9828 353.01 72.5098 346.948 74.3678 346.948C75.2978 346.948 75.7088 350.918 75.9748 362.485C76.2618 374.92 76.6328 378.213 77.8318 378.975C82.5128 381.949 102.617 389.534 112.195 391.94C140.939 399.158 169.952 400.985 255.831 400.981C341.79 400.977 370.734 399.155 399.467 391.94C409.045 389.534 429.149 381.949 433.83 378.975C435.029 378.213 435.4 374.92 435.687 362.485C435.954 350.875 436.362 346.948 437.3 346.948C439.003 346.948 445.209 351.97 451.651 358.561L456.971 364.005L461.151 360.765C463.45 358.983 468.537 354.443 472.456 350.676L479.58 343.828L479.723 336.872C479.922 327.218 476.906 322.016 468.331 317.225C465.984 315.913 465.708 315.468 467.062 315.179C469.457 314.667 484.28 317.767 490.276 320.035C494.885 321.777 495.346 321.792 497.051 320.249C499.372 318.148 505.131 306.196 507.427 298.714C508.859 294.045 508.96 292.559 507.968 290.714C504.811 284.839 492.739 280.563 479.121 280.495C474.013 280.469 469.833 280.111 469.832 279.698C469.829 278.07 474.308 274.619 479.524 272.231C482.543 270.849 490.801 268.291 497.874 266.547C504.948 264.803 511.036 263.077 511.402 262.71C513.591 260.522 503.864 223.081 497.694 209.948C490.152 193.893 490.519 195.344 490.734 182.448C491.265 150.64 486.065 118.422 475.967 90.9482C474.855 87.9232 472.529 81.6232 470.799 76.9482C469.068 72.2732 467.287 67.3232 466.841 65.9482C465.824 62.8182 458.612 47.0432 455.276 40.6502C453.899 38.0122 453.08 35.3552 453.456 34.7462C453.835 34.1332 453.689 33.9182 453.128 34.2642C452.572 34.6082 450.858 32.5402 449.319 29.6692C444.504 20.6842 437.688 9.63922 433.936 4.74122C431.367 1.38622 429.612 0.0242233 427.831 0.000223292C424.718 -0.0417767 403.559 5.85123 394.831 9.19023C373.432 17.3772 358.34 25.7772 334.373 42.8402C326.1 48.7292 318.833 53.8502 318.224 54.2192C317.615 54.5882 314.465 54.4492 311.224 53.9112C300.592 52.1442 265.661 50.2222 248.831 50.4772C231.842 50.7342 210.804 52.2342 200.438 53.9272C197.197 54.4562 194.047 54.5902 193.438 54.2242C192.829 53.8582 185.581 48.7712 177.331 42.9212C152.873 25.5762 140.958 18.8352 120.069 10.5232C109.523 6.32723 87.5718 -0.0467849 83.8308 0.00121511C82.0508 0.0242151 80.2838 1.39222 77.6938 4.75422ZM107.331 26.3992C128.496 33.7672 177.698 57.9632 173.251 58.8162C168.715 59.6862 152.549 65.0532 143.14 68.8132C117.817 78.9312 91.9238 97.5572 69.5808 121.724C64.2178 127.526 64.2178 127.526 66.2988 114.448C69.8348 92.2262 72.0618 82.0482 75.9058 70.5332C78.9548 61.4012 88.2028 40.9752 89.7388 39.9812C90.1918 39.6882 91.4948 37.6482 92.6358 35.4482C93.7758 33.2482 95.8618 30.1412 97.2698 28.5422C98.6788 26.9442 99.8308 25.2572 99.8308 24.7922C99.8308 23.7092 99.2418 23.5832 107.331 26.3992ZM414.57 28.4312C416.352 30.8542 418.573 34.4362 419.506 36.3922C420.438 38.3482 421.498 39.9482 421.86 39.9482C422.998 39.9482 432.577 61.0382 435.752 70.5332C439.258 81.0202 441.006 88.7782 444.396 108.896C447.609 127.961 447.621 127.839 443.081 122.749C431.113 109.329 414.899 95.3822 398.273 84.2062C384.024 74.6282 360.981 64.7982 339.93 59.3162L336.528 58.4302L347.93 52.2662C359.998 45.7412 379.333 36.3702 389.331 32.2012C395.709 29.5412 409.994 24.1382 410.831 24.0682C411.106 24.0452 412.789 26.0082 414.57 28.4312ZM178.369 193.04C188.32 194.879 198.297 200.308 205.908 208.026C213.104 215.323 216.849 221.861 219.301 231.408C226.139 258.038 209.16 285.6 181.767 292.334C164.845 296.495 147.741 291.748 135.334 279.448C124.701 268.906 119.867 257.65 119.844 243.38C119.818 227.068 126.62 212.844 139.004 203.315C151.405 193.773 164.228 190.426 178.369 193.04ZM351.032 193.078C361.905 195.397 375.063 203.316 381.01 211.118C393.692 227.76 395.361 251.169 385.117 268.75C381.168 275.527 371.175 285.011 364.632 288.19C352.746 293.966 341.829 295.268 329.895 292.334C302.516 285.603 285.527 258.025 292.361 231.408C294.812 221.864 298.557 215.324 305.743 208.037C318.189 195.417 335.378 189.739 351.032 193.078ZM220.703 292.694C219.949 293.654 218.763 295.042 218.069 295.777C217.375 296.512 214.93 300.994 212.635 305.736C206.06 319.32 206.567 327.453 214.306 332.524C221.046 336.94 243.612 331.815 250.055 324.405C251.593 322.637 253.212 321.948 255.831 321.948C258.45 321.948 260.069 322.637 261.607 324.405C268.05 331.815 290.616 336.94 297.356 332.524C301.848 329.58 303.988 325.064 303.571 319.403C303.161 313.824 296.769 299.494 292.459 294.491C289.332 290.861 289.688 290.306 293.785 292.424C297.807 294.504 300.179 296.433 305.239 301.74C315.25 312.241 315.221 328.642 305.174 338.134C301.101 341.983 297.293 343.19 289.331 343.156C279.937 343.116 273.924 341.619 264.081 336.871L255.831 332.891L247.581 336.871C237.738 341.619 231.725 343.116 222.331 343.156C211.338 343.203 205.996 340.056 201.238 330.731C198.365 325.101 198.101 318.438 200.462 311.127C202.288 305.475 210.613 296.174 216.751 292.929C221.268 290.541 222.451 290.471 220.703 292.694Z" fill="#ffbfe1"/>
</svg>
